<svg width="21" height="21" viewBox="0 0 21 21" fill="none" xmlns="http://www.w3.org/2000/svg">
<g clip-path="url(#clip0_44_237)">
<path fill-rule="evenodd" clip-rule="evenodd" d="M10.5 1.75C5.66751 1.75 1.75 5.66751 1.75 10.5C1.75 15.3324 5.66751 19.25 10.5 19.25C11.1982 19.25 11.8772 19.1683 12.5281 19.0137C14.0154 18.7199 15.5468 18.723 17.0341 19.0234L17.5079 19.119C17.8077 19.1796 18.0677 18.9057 17.9916 18.6093L17.3172 15.9857C18.5263 14.4851 19.25 12.5771 19.25 10.5C19.25 5.66751 15.3324 1.75 10.5 1.75Z" fill="white"/>
<path d="M12.528 19.0141L12.3754 18.2416C12.3656 18.2435 12.3559 18.2456 12.3462 18.2479L12.528 19.0141ZM17.3171 15.9861L16.7039 15.492C16.548 15.6856 16.4925 15.9414 16.5545 16.1821L17.3171 15.9861ZM2.5374 10.5004C2.5374 6.10282 6.10234 2.53789 10.4999 2.53789V0.962891C5.23249 0.962891 0.962402 5.23298 0.962402 10.5004H2.5374ZM10.4999 18.4629C6.10234 18.4629 2.5374 14.898 2.5374 10.5004H0.962402C0.962402 15.7678 5.23249 20.0379 10.4999 20.0379V18.4629ZM12.3462 18.2479C11.7544 18.3883 11.1364 18.4629 10.4999 18.4629V20.0379C11.2598 20.0379 11.9997 19.9489 12.7098 19.7804L12.3462 18.2479ZM17.19 18.2518C15.6008 17.9309 13.9646 17.9277 12.3754 18.2416L12.6806 19.7868C14.0661 19.5131 15.4927 19.5159 16.8781 19.7957L17.19 18.2518ZM17.6636 18.3475L17.19 18.2518L16.8781 19.7957L17.3519 19.8913L17.6636 18.3475ZM17.2287 18.8057C17.1603 18.5394 17.394 18.2931 17.6636 18.3475L17.3519 19.8913C18.2213 20.0669 18.975 19.2727 18.7542 18.4137L17.2287 18.8057ZM16.5545 16.1821L17.2287 18.8057L18.7542 18.4137L18.0799 15.7901L16.5545 16.1821ZM18.4624 10.5004C18.4624 12.3913 17.8043 14.1263 16.7039 15.492L17.9304 16.4802C19.2481 14.8447 20.0374 12.7637 20.0374 10.5004H18.4624ZM10.4999 2.53789C14.8975 2.53789 18.4624 6.10282 18.4624 10.5004H20.0374C20.0374 5.23298 15.7673 0.962891 10.4999 0.962891V2.53789Z" fill="#38D57A"/>
<path d="M12.528 19.0141L12.3754 18.2416C12.3656 18.2435 12.3559 18.2456 12.3462 18.2479L12.528 19.0141ZM17.3171 15.9861L16.7039 15.492C16.548 15.6856 16.4925 15.9414 16.5545 16.1821L17.3171 15.9861ZM2.5374 10.5004C2.5374 6.10282 6.10234 2.53789 10.4999 2.53789V0.962891C5.23249 0.962891 0.962402 5.23298 0.962402 10.5004H2.5374ZM10.4999 18.4629C6.10234 18.4629 2.5374 14.898 2.5374 10.5004H0.962402C0.962402 15.7678 5.23249 20.0379 10.4999 20.0379V18.4629ZM12.3462 18.2479C11.7544 18.3883 11.1364 18.4629 10.4999 18.4629V20.0379C11.2598 20.0379 11.9997 19.9489 12.7098 19.7804L12.3462 18.2479ZM17.19 18.2518C15.6008 17.9309 13.9646 17.9277 12.3754 18.2416L12.6806 19.7868C14.0661 19.5131 15.4927 19.5159 16.8781 19.7957L17.19 18.2518ZM17.6636 18.3475L17.19 18.2518L16.8781 19.7957L17.3519 19.8913L17.6636 18.3475ZM17.2287 18.8057C17.1603 18.5394 17.394 18.2931 17.6636 18.3475L17.3519 19.8913C18.2213 20.0669 18.975 19.2727 18.7542 18.4137L17.2287 18.8057ZM16.5545 16.1821L17.2287 18.8057L18.7542 18.4137L18.0799 15.7901L16.5545 16.1821ZM18.4624 10.5004C18.4624 12.3913 17.8043 14.1263 16.7039 15.492L17.9304 16.4802C19.2481 14.8447 20.0374 12.7637 20.0374 10.5004H18.4624ZM10.4999 2.53789C14.8975 2.53789 18.4624 6.10282 18.4624 10.5004H20.0374C20.0374 5.23298 15.7673 0.962891 10.4999 0.962891V2.53789Z" fill="black" fill-opacity="0.2"/>
<path fill-rule="evenodd" clip-rule="evenodd" d="M11.0568 6.66229C10.7492 6.35476 10.2506 6.35476 9.94305 6.66229L7.31805 9.28729C7.01052 9.59486 7.01052 10.0934 7.31805 10.401C7.6256 10.7086 8.12421 10.7086 8.43175 10.401L9.7124 9.12034V14.0004C9.7124 14.4354 10.0649 14.7879 10.4999 14.7879C10.9349 14.7879 11.2874 14.4354 11.2874 14.0004V9.12034L12.5681 10.401C12.8756 10.7086 13.3742 10.7086 13.6818 10.401C13.9893 10.0934 13.9893 9.59486 13.6818 9.28729L11.0568 6.66229Z" fill="#38D57A"/>
<path fill-rule="evenodd" clip-rule="evenodd" d="M11.0568 6.66229C10.7492 6.35476 10.2506 6.35476 9.94305 6.66229L7.31805 9.28729C7.01052 9.59486 7.01052 10.0934 7.31805 10.401C7.6256 10.7086 8.12421 10.7086 8.43175 10.401L9.7124 9.12034V14.0004C9.7124 14.4354 10.0649 14.7879 10.4999 14.7879C10.9349 14.7879 11.2874 14.4354 11.2874 14.0004V9.12034L12.5681 10.401C12.8756 10.7086 13.3742 10.7086 13.6818 10.401C13.9893 10.0934 13.9893 9.59486 13.6818 9.28729L11.0568 6.66229Z" fill="black" fill-opacity="0.2"/>
</g>
<defs>
<clipPath id="clip0_44_237">
<rect width="21" height="21" fill="white"/>
</clipPath>
</defs>
</svg>
